<svg width="22" height="22" viewBox="0 0 22 22" fill="none" xmlns="http://www.w3.org/2000/svg">
<path d="M15.0337 19.25H13.0589L11.2256 14.6666H5.27442L3.44108 19.25H1.46631L7.33333 4.58326H9.16667L15.0337 19.25ZM19.25 11V19.25H17.4167V11H19.25ZM6.00757 12.8333H10.4924L8.25 7.22763L6.00757 12.8333ZM17.9019 2.12599C18.0637 1.73568 18.603 1.73567 18.7648 2.12599L18.9966 2.68637C19.3925 3.64227 20.1314 4.40558 21.0601 4.81869L21.7171 5.11141C22.0937 5.27887 22.0937 5.82661 21.7171 5.99406L21.0216 6.3038C20.1163 6.70647 19.3906 7.44276 18.9877 8.36719L18.7612 8.8855C18.5958 9.26517 18.0708 9.26517 17.9054 8.8855L17.6789 8.36719C17.2761 7.44275 16.5505 6.70647 15.6451 6.3038L14.9486 5.99406C14.5726 5.82645 14.5726 5.27899 14.9486 5.11141L15.6066 4.81869C16.5352 4.40558 17.2741 3.64227 17.67 2.68637L17.9019 2.12599Z" fill="white"/>
</svg>
